<svg xmlns="http://www.w3.org/2000/svg" x="0px" y="0px"
width="64" height="64"
viewBox="0 0 172 172"
style=" fill:#000000;"><g fill="none" fill-rule="nonzero" stroke="none" stroke-width="1" stroke-linecap="butt" stroke-linejoin="miter" stroke-miterlimit="10" stroke-dasharray="" stroke-dashoffset="0" font-family="none" font-weight="none" font-size="none" text-anchor="none" style="mix-blend-mode: normal"><path d="M0,172v-172h172v172z" fill="none"></path><g><path d="M85.59688,62.48438v-26.875c0,-7.39062 -6.04687,-13.4375 -13.4375,-13.4375v0c-7.39062,0 -13.4375,6.04688 -13.4375,13.4375v40.3125c0,14.78125 12.09375,26.875 26.875,26.875h13.4375c14.78125,0 26.875,-12.09375 26.875,-26.875v-13.4375z" fill="#ffffff"></path><path d="M72.15938,40.98438c-1.075,0 -2.15,-0.40313 -2.82187,-1.20938c-0.80625,-0.67187 -1.20938,-1.74687 -1.20938,-2.82187h8.0625c0,1.075 -0.40312,2.15 -1.20937,2.82187c-0.80625,0.67188 -1.74688,1.20938 -2.82188,1.20938z" fill="#454b54"></path><path d="M50.65938,163.9375l24.05313,-33.325c5.375,-7.39063 16.39375,-7.39063 21.76875,0l24.05312,33.325" fill="#ce938e"></path><path d="M99.03438,106.82813c17.06563,0 30.90625,-13.84063 30.90625,-30.90625v-13.4375c0,-2.28438 -1.74688,-4.03125 -4.03125,-4.03125h-36.28125v-22.84375c0,-9.675 -7.79375,-17.46875 -17.46875,-17.46875c-9.675,0 -17.46875,7.79375 -17.46875,17.46875v2.6875h-16.125c-2.28437,0 -4.03125,1.74688 -4.03125,4.03125v1.34375c0,2.28438 1.74688,4.03125 4.03125,4.03125c1.20937,0 2.28437,-0.5375 2.95625,-1.34375h13.16875v29.5625c0,15.72187 11.69063,28.62188 26.875,30.6375v14.91562c-4.03125,0.94062 -7.65937,3.35938 -10.07812,6.71875l-24.05312,33.325c-1.34375,1.74687 -0.94063,4.3 0.94063,5.64375c1.74687,1.34375 4.3,0.94063 5.64375,-0.94063l23.91875,-33.19062c1.74688,-2.41875 4.56875,-3.89687 7.65937,-3.89687c3.09063,0 5.77813,1.47812 7.65938,3.89687l24.05313,33.325c0.80625,1.075 2.01563,1.6125 3.225,1.6125c0.80625,0 1.6125,-0.26875 2.41875,-0.80625c1.74688,-1.34375 2.15,-3.7625 0.94063,-5.64375l-24.1875,-33.19063c-2.55313,-3.49375 -6.04687,-5.77813 -10.07812,-6.71875v-14.78125zM62.75313,75.92188v-40.3125c0,-5.24062 4.16562,-9.40625 9.40625,-9.40625c5.24063,0 9.40625,4.16563 9.40625,9.40625v26.875c0,2.28437 1.74688,4.03125 4.03125,4.03125h36.28125v9.40625c0,12.63125 -10.2125,22.84375 -22.84375,22.84375h-13.4375c-12.63125,0 -22.84375,-10.34687 -22.84375,-22.84375z" fill="#454b54"></path><path d="M99.30313,169.3125c-0.13437,0 -0.13437,0 -0.26875,0c-4.97187,0 -9.675,-1.74687 -13.4375,-4.70312c-3.7625,2.82188 -8.33125,4.43437 -13.16875,4.43437c-4.97188,0 -9.54063,-1.6125 -13.30313,-4.43437c-3.7625,2.95625 -8.33125,4.43437 -13.30312,4.43437c-4.97187,0 -9.54063,-1.6125 -13.30313,-4.43437c-3.7625,2.95625 -8.33125,4.43437 -13.30312,4.43437c-6.31563,0 -12.3625,-2.6875 -16.39375,-7.39062c-1.47812,-1.74687 -1.20937,-4.3 0.40312,-5.64375c1.74687,-1.47813 4.3,-1.20938 5.64375,0.40312c2.41875,2.95625 6.18125,4.56875 10.2125,4.56875c4.03125,0 7.79375,-1.6125 10.2125,-4.56875c0.80625,-0.94063 1.88125,-1.47813 3.09062,-1.47813c1.20938,0 2.28438,0.5375 3.09063,1.47813c2.41875,2.95625 6.18125,4.56875 10.2125,4.56875c4.03125,0 7.79375,-1.6125 10.2125,-4.56875c0.80625,-0.94063 1.88125,-1.47813 3.09062,-1.47813c1.20938,0 2.28438,0.5375 3.09062,1.47813c2.41875,2.95625 6.18125,4.56875 10.2125,4.56875c4.03125,0 7.79375,-1.6125 10.2125,-4.56875c0.80625,-0.94063 1.88125,-1.47813 3.09062,-1.47813v0c1.20937,0 2.28437,0.5375 3.09063,1.47813l0.26875,0.26875c2.41875,2.82187 6.18125,4.56875 10.07813,4.56875h0.13437c3.89688,0 7.525,-1.6125 10.07813,-4.43437l0.5375,-0.5375c0.80625,-0.94062 1.88125,-1.34375 3.09062,-1.34375c1.20937,0 2.28438,0.5375 3.09063,1.47813c2.41875,2.95625 6.18125,4.56875 10.2125,4.56875c2.28437,0 4.03125,1.74688 4.03125,4.03125c0,2.28438 -1.74687,4.03125 -4.03125,4.03125c-4.8375,0 -9.54062,-1.6125 -13.16875,-4.43437c-3.89688,2.95625 -8.73438,4.70313 -13.70625,4.70313zM165.95313,162.99687c-2.28438,0 -4.03125,-1.74687 -4.03125,-4.03125c0,-2.28437 1.74687,-4.03125 4.03125,-4.03125v0c2.28438,0 4.03125,1.74688 4.03125,4.03125c0,2.28438 -1.74687,4.03125 -4.03125,4.03125z" fill="#454b54"></path><path d="M126.04375,169.04375c-6.31563,0 -12.3625,-2.6875 -16.39375,-7.39062c-1.47812,-1.74687 -1.20938,-4.3 0.40313,-5.64375c1.74687,-1.47813 4.3,-1.20938 5.64375,0.40312c2.41875,2.95625 6.18125,4.56875 10.2125,4.56875c4.03125,0 7.79375,-1.6125 10.2125,-4.56875c0.80625,-0.94063 1.88125,-1.47813 3.09062,-1.47813v0c1.20937,0 2.28438,0.5375 3.09062,1.47813c2.41875,2.82187 6.04688,4.43437 9.80937,4.56875c2.28438,0 4.03125,1.88125 3.89688,4.16563c0,2.15 -1.88125,3.89687 -4.03125,3.89687h-0.13437c-4.70312,-0.13437 -9.1375,-1.74687 -12.76562,-4.43437c-3.35937,2.82188 -8.0625,4.43437 -13.03437,4.43437z" fill="#454b54"></path><path d="M112.47188,89.35938v0c-14.78125,0 -26.875,-12.09375 -26.875,-26.875v0h53.75v0c0,14.78125 -12.09375,26.875 -26.875,26.875z" fill="#7ca5c6"></path><path d="M139.34688,-32.7875v0v0M139.34688,-32.92187v0v0M139.34688,-32.92187v0v0" fill="#e6e7e7"></path><path d="M139.34688,61.14063h-13.4375v13.4375c0,3.89687 -0.80625,7.65937 -2.41875,11.01875c9.27187,-4.16562 15.85625,-13.57187 15.85625,-24.45625c0,0.13437 0,0.13437 0,0c0,0.13437 0,0.13437 0,0v0v0v0v0" fill="#7196b4"></path><path d="M112.47188,93.39063c-17.06562,0 -30.90625,-13.84063 -30.90625,-30.90625c0,-2.28438 1.74688,-4.03125 4.03125,-4.03125h53.75c2.28437,0 4.03125,1.74687 4.03125,4.03125c0,17.06562 -13.84063,30.90625 -30.90625,30.90625zM89.89688,66.51563c1.88125,10.61562 11.2875,18.8125 22.44062,18.8125c11.15313,0 20.55937,-8.19688 22.44063,-18.8125z" fill="#454b54"></path></g></g></svg>