<svg xmlns="http://www.w3.org/2000/svg" x="0px" y="0px"
width="64" height="64"
viewBox="0 0 172 172"
style=" fill:#000000;"><g fill="none" fill-rule="nonzero" stroke="none" stroke-width="1" stroke-linecap="butt" stroke-linejoin="miter" stroke-miterlimit="10" stroke-dasharray="" stroke-dashoffset="0" font-family="none" font-weight="none" font-size="none" text-anchor="none" style="mix-blend-mode: normal"><path d="M0,172v-172h172v172z" fill="none"></path><g><path d="M107.10897,9.05284l20.76631,5.56313l-6.25919,23.36378l-20.76766,-5.56447l6.26053,-23.36244" fill="#e4caa6"></path><path d="M120.02644,12.60034l-6.23903,23.28181l7.78837,2.08684l6.23769,-23.28181l-7.78703,-2.08684" fill="#ceb797"></path><path d="M122.68438,34.13125l-20.82812,-5.50938c-1.47813,-0.40312 -2.95625,0.40313 -3.22366,1.88125l-2.15134,7.79375c-0.40313,1.47812 0.40312,2.95625 1.88125,3.225l-10.75,40.3125c-10.48125,-2.41875 -21.23125,3.89688 -24.05312,14.37812l-17.33437,65.84375l63.29062,0.26875l12.49688,-50.39062c2.82188,-10.48125 -3.225,-21.36562 -13.57188,-24.45625l10.75,-40.3125c1.47813,0.40312 2.95625,-0.40312 3.22366,-1.88125l2.15134,-7.79375c0.40313,-1.47812 -0.5375,-2.95625 -1.88125,-3.35937" fill="#6ec7b0"></path><path d="M101.51763,86.95944c6.47284,4.78375 9.72338,13.25072 7.45916,21.48119l-14.22628,53.82122l13.64847,0.05778l13.47916,-50.38525c1.32091,-4.86303 0.98766,-9.85103 -1.15831,-13.92663c-5.60478,-10.64384 -19.20219,-11.04831 -19.20219,-11.04831" fill="#64b4a0"></path><path d="M111.31222,45.06938l-10.77284,40.20231l7.22938,1.93769c0.18678,0.04972 0.37222,0.10078 0.55631,0.15453l10.77284,-40.20903l-7.78569,-2.0855" fill="#64b4a0"></path><path d="M66.91875,146.2c-0.40313,0 -0.67187,0 -1.075,-0.13437c-2.15,-0.5375 -3.35937,-2.82188 -2.82187,-4.97188l11.01875,-41.11875c0.5375,-2.15 2.82188,-3.35937 4.97188,-2.82187c2.15,0.5375 3.35938,2.82187 2.82187,4.97187l-11.01875,41.11875c-0.5375,1.74687 -2.15,2.95625 -3.89687,2.95625z" fill="#ffffff"></path><path d="M128.86563,10.75l-20.69375,-5.50937c-2.15,-0.5375 -4.3,0.67188 -4.97187,2.82188l-4.56875,16.93125c-1.88125,0.80625 -3.35937,2.41875 -4.03125,4.43437l-2.15,7.79375c-0.40313,1.74688 -0.26875,3.49375 0.67188,5.10625c0.13437,0.26875 0.40312,0.5375 0.5375,0.80625l-9.00312,34.13125c-11.2875,-0.80625 -21.90312,6.58437 -24.99375,17.87188l-17.46875,65.30625c-2.55313,-0.67187 -4.8375,-2.15 -6.45,-4.03125c-0.80625,-0.94062 -1.88125,-1.47812 -3.09063,-1.47812c-1.20938,0 -2.28437,0.5375 -3.09062,1.47812c-2.41875,2.95625 -6.18125,4.56875 -10.2125,4.56875c-4.03125,0 -7.79375,-1.6125 -10.2125,-4.56875c-1.47812,-1.74687 -4.03125,-1.88125 -5.64375,-0.40312c-1.74687,1.47813 -1.88125,4.03125 -0.40312,5.64375c4.03125,4.70313 9.94375,7.39063 16.39375,7.39063c4.97187,0 9.54062,-1.6125 13.30313,-4.43437c3.7625,2.95625 8.33125,4.43437 13.30312,4.43437c4.97188,0 9.54063,-1.6125 13.30313,-4.43437c3.7625,2.95625 8.33125,4.43437 13.30312,4.43437c4.8375,0 9.54063,-1.6125 13.16875,-4.43437c3.7625,2.95625 8.46562,4.70313 13.4375,4.70313c0.13437,0 0.13437,0 0.26875,0c4.97188,0 9.80938,-1.74688 13.57187,-4.70312c3.7625,2.82187 8.33125,4.43437 13.16875,4.43437c2.28437,0 4.03125,-1.74687 4.03125,-4.03125c0,-2.28438 -1.74687,-4.03125 -4.03125,-4.03125c-4.03125,0 -7.79375,-1.6125 -10.2125,-4.56875c-0.40313,-0.40312 -0.80625,-0.80625 -1.34375,-1.075l11.15313,-42.4625c1.6125,-6.18125 0.80625,-12.76562 -2.41875,-18.40937c-2.41875,-4.16563 -6.04687,-7.525 -10.2125,-9.675l9.1375,-34.26562c1.88125,-0.80625 3.35938,-2.41875 4.03125,-4.43437l2.15,-7.79375c0.40312,-1.74687 0.26875,-3.49375 -0.67188,-5.10625c-0.13437,-0.26875 -0.40312,-0.5375 -0.5375,-0.80625l4.3,-16.6625c0.67188,-2.15 -0.67187,-4.43437 -2.82188,-4.97187zM116.50313,98.63125c2.15,3.7625 2.6875,8.0625 1.6125,12.22812l-13.16875,49.31563c-1.74687,0.80625 -3.62812,1.20937 -5.64375,1.20937h-0.13437c-3.89688,0 -7.65938,-1.74687 -10.07812,-4.56875l-0.26875,-0.26875c-0.80625,-0.94063 -1.88125,-1.47813 -3.09062,-1.47813v0c-1.20937,0 -2.28438,0.5375 -3.09063,1.47813c-2.41875,2.95625 -6.18125,4.56875 -10.2125,4.56875c-4.03125,0 -7.79375,-1.6125 -10.2125,-4.56875c-0.80625,-0.94063 -1.88125,-1.47813 -3.09062,-1.47813c-1.20938,0 -2.28438,0.5375 -3.09062,1.47813c-1.47813,1.74687 -3.35937,2.95625 -5.50938,3.7625l16.79688,-62.8875c2.28438,-8.6 11.15313,-13.70625 19.75312,-11.42187l19.48438,5.24063c4.3,0.94062 7.79375,3.62812 9.94375,7.39063zM105.48438,82.37188l-13.03437,-3.49375l8.73438,-32.38438l1.74687,0.5375l11.15313,2.95625zM118.92188,42.86563l-9.1375,-2.41875l-9.00312,-2.41875l1.34375,-5.24063l18.14063,4.8375zM119.72813,29.15938l-13.03437,-3.49375l3.09062,-11.69062l13.03438,3.49375zM165.95313,162.99687c-2.28438,0 -4.03125,-1.74687 -4.03125,-4.03125c0,-2.28437 1.74687,-4.03125 4.03125,-4.03125v0c2.28438,0 4.03125,1.74688 4.03125,4.03125c0,2.28438 -1.74687,4.03125 -4.03125,4.03125z" fill="#454b54"></path><path d="M126.04375,169.04375c-6.31563,0 -12.3625,-2.6875 -16.39375,-7.39062c-1.47812,-1.74687 -1.20938,-4.3 0.40313,-5.64375c1.74687,-1.47813 4.3,-1.20938 5.64375,0.40312c2.41875,2.95625 6.18125,4.56875 10.2125,4.56875c4.03125,0 7.79375,-1.6125 10.2125,-4.56875c0.80625,-0.94063 1.88125,-1.47813 3.09062,-1.47813v0c1.20937,0 2.28438,0.5375 3.09062,1.47813c2.41875,2.82187 6.04688,4.43437 9.80937,4.56875c2.28438,0 4.03125,1.88125 3.89688,4.16563c0,2.15 -1.88125,3.89687 -4.03125,3.89687h-0.13437c-4.70312,-0.13437 -9.1375,-1.74687 -12.76562,-4.43437c-3.35937,2.82188 -8.0625,4.43437 -13.03437,4.43437z" fill="#454b54"></path></g></g></svg>