<svg xmlns="http://www.w3.org/2000/svg" x="0px" y="0px"
width="64" height="64"
viewBox="0 0 172 172"
style=" fill:#000000;"><g fill="none" fill-rule="nonzero" stroke="none" stroke-width="1" stroke-linecap="butt" stroke-linejoin="miter" stroke-miterlimit="10" stroke-dasharray="" stroke-dashoffset="0" font-family="none" font-weight="none" font-size="none" text-anchor="none" style="mix-blend-mode: normal"><path d="M0,172v-172h172v172z" fill="none"></path><g><path d="M99.57188,78.07188v-34.9375c1.47947,0 2.6875,-1.20937 2.6875,-2.6875v-8.0625c0,-1.47812 -1.20803,-2.6875 -2.6875,-2.6875h-21.5c-1.47813,0 -2.6875,1.20937 -2.6875,2.6875v8.0625c0,1.47813 1.20937,2.6875 2.6875,2.6875v34.9375c-10.88438,0.40312 -19.48437,9.27187 -19.48437,20.15625v64.5h60.46875v-64.5c0,-10.88437 -8.73437,-19.75312 -19.48437,-20.15625" fill="#7ca5c6"></path><path d="M92.7295,79.41563c7.54919,2.90922 12.88925,10.22191 12.88925,18.8125v64.5h13.4375v-64.5c0,-10.19772 -6.69322,-20.14416 -19.48437,-20.14416c-4.03125,-0.00134 -6.84238,1.33166 -6.84238,1.33166z" fill="#6687a2"></path><path d="M78.07188,9.54063h21.5v24.1875h-21.5v-24.1875" fill="#e4caa6"></path><path d="M99.57188,9.54063h-8.0625v24.1875h8.0625v-24.1875" fill="#b9a589"></path><path d="M99.57188,43.13438h-8.0625v34.9375h7.39063c0.22441,0 0.44881,0.00403 0.67188,0.01075v-0.01075v0v-34.9375v0" fill="#6687a2"></path><path d="M72.025,149.29063c-2.28438,0 -4.03125,-1.74688 -4.03125,-4.03125v-47.03125c0,-2.28437 1.74687,-4.03125 4.03125,-4.03125c2.28437,0 4.03125,1.74688 4.03125,4.03125v47.03125c0,2.15 -1.88125,4.03125 -4.03125,4.03125z" fill="#ffffff"></path><path d="M126.04375,160.98125c-1.20938,0 -3.09063,2.6875 -3.09063,-2.28437v-60.46875c0,-11.69062 -8.33125,-21.5 -19.48437,-23.78437v-28.62187c1.6125,-1.20937 2.6875,-3.09062 2.6875,-5.375v-8.0625c0,-2.15 -1.075,-4.16562 -2.6875,-5.375v-17.46875c0,-2.28438 -1.74688,-4.03125 -4.03125,-4.03125h-21.5c-2.28437,0 -4.03125,1.74687 -4.03125,4.03125v17.46875c-1.6125,1.20937 -2.6875,3.09062 -2.6875,5.375v8.0625c0,2.15 1.075,4.16563 2.6875,5.375v28.75625c-11.15312,2.15 -19.48437,11.95938 -19.48437,23.78437v59.6625c-2.41875,2.01563 -5.375,3.09062 -8.6,3.09062c-4.03125,0 -7.79375,-1.6125 -10.2125,-4.56875c-0.80625,-0.94062 -1.88125,-1.47812 -3.09063,-1.47812c-1.20938,0 -2.28437,0.5375 -3.09062,1.47812c-2.41875,2.95625 -6.18125,4.56875 -10.2125,4.56875c-4.03125,0 -7.79375,-1.6125 -10.2125,-4.56875c-1.47812,-1.74687 -4.03125,-1.88125 -5.64375,-0.40312c-1.74687,1.47813 -1.88125,4.03125 -0.40312,5.64375c4.03125,4.70313 9.94375,7.39063 16.39375,7.39063c4.97188,0 9.54063,-1.6125 13.30312,-4.43437c3.7625,2.95625 8.33125,4.43437 13.30313,4.43437c4.97188,0 9.54062,-1.6125 13.30312,-4.43437c3.7625,2.95625 8.33125,4.43437 13.30312,4.43437c4.8375,0 9.54063,-1.6125 13.16875,-4.43437c3.7625,2.95625 8.46562,4.70313 13.4375,4.70313c0.13437,0 0.13437,0 0.26875,0c4.97187,0 9.80938,-1.74688 13.57187,-4.70312c3.7625,2.82187 8.33125,4.43437 13.16875,4.43437c2.28438,0 4.03125,-1.74687 4.03125,-4.03125c0,-2.28438 -1.88125,-4.16563 -4.16562,-4.16563zM82.10313,13.57188h13.4375v12.09375h-13.4375zM79.41563,33.72813h18.8125v5.375h-18.8125zM95.54063,47.16563v26.875h-13.4375v-26.875zM112.875,154.93437c-1.075,0 -2.28437,0.5375 -3.09063,1.34375l-0.5375,0.5375c-2.41875,2.82187 -6.18125,4.43437 -10.07812,4.43437h-0.13438c-3.89687,0 -7.65937,-1.74687 -10.07812,-4.56875l-0.26875,-0.26875c-0.80625,-0.94063 -1.88125,-1.47813 -3.09063,-1.47813v0c-1.20937,0 -2.28437,0.5375 -3.09062,1.47813c-2.41875,2.95625 -6.18125,4.56875 -10.2125,4.56875c-3.89687,0 -7.39062,-1.6125 -9.94375,-4.3v-58.45313c0,-8.86875 7.25625,-16.125 16.125,-16.125h20.15625c8.86875,0 16.125,7.25625 16.125,16.125v57.37813c-0.40313,-0.40312 -1.075,-0.67187 -1.88125,-0.67187zM165.95313,162.99687c-2.28438,0 -4.03125,-1.74687 -4.03125,-4.03125c0,-2.28437 1.74687,-4.03125 4.03125,-4.03125v0c2.28438,0 4.03125,1.74688 4.03125,4.03125c0,2.28438 -1.74687,4.03125 -4.03125,4.03125z" fill="#454b54"></path><path d="M126.04375,169.04375c-6.31563,0 -12.3625,-2.6875 -16.39375,-7.39062c-1.47812,-1.74687 -1.20938,-4.3 0.40313,-5.64375c1.74687,-1.47813 4.3,-1.20938 5.64375,0.40312c2.41875,2.95625 6.18125,4.56875 10.2125,4.56875c4.03125,0 7.79375,-1.6125 10.2125,-4.56875c0.80625,-0.94063 1.88125,-1.47813 3.09062,-1.47813v0c1.20937,0 2.28438,0.5375 3.09062,1.47813c2.41875,2.82187 6.04688,4.43437 9.80937,4.56875c2.28438,0 4.03125,1.88125 3.89688,4.16563c0,2.15 -1.88125,3.89687 -4.03125,3.89687h-0.13437c-4.70312,-0.13437 -9.1375,-1.74687 -12.76562,-4.43437c-3.35937,2.82188 -8.0625,4.43437 -13.03437,4.43437z" fill="#454b54"></path></g></g></svg>