<svg xmlns="http://www.w3.org/2000/svg" x="0px" y="0px"
width="16" height="16"
viewBox="0 0 172 172"
style=" fill:#000000;"><g fill="none" fill-rule="nonzero" stroke="none" stroke-width="1" stroke-linecap="butt" stroke-linejoin="miter" stroke-miterlimit="10" stroke-dasharray="" stroke-dashoffset="0" font-family="none" font-weight="none" font-size="none" text-anchor="none" style="mix-blend-mode: normal"><path d="M0,172v-172h172v172z" fill="none"></path><g><path d="M64.99307,116.616l-41.366,15.50867l20.49667,-35.86773l-36.83667,-18.41547l36.45253,-13.0204l-15.566,-46.698l42.12853,26.32747l12.8312,-35.92507l12.5732,35.21413l46.70373,-15.566l-26.4708,42.3636l45.92973,12.75667l-39.80653,12.44133l21.3452,42.6904l-47.51787,-15.8412l-17.888,40.8844z" fill="#f78f8f"></path><path d="M83.13333,17.0452l8.93253,25.01453l1.88627,5.28613l5.32627,-1.77733l36.47547,-12.1604l-20.21573,32.34747l-4.07067,6.50733l7.396,2.05253l32.87493,9.1332l-27.31933,8.53693l-6.4328,2.0124l3.01573,6.02573l16.74133,33.4884l-38.47067,-12.82547l-4.96507,-1.65693l-2.0984,4.7988l-13.6052,31.0976l-10.01613,-36.0684l-1.67413,-6.03147l-5.85947,2.19587l-30.9944,11.62147l15.05573,-26.34467l3.00427,-5.2632l-5.418,-2.71187l-28.11627,-14.05813l27.47987,-9.81547l5.28613,-1.88627l-1.77733,-5.32627l-12.1604,-36.45827l32.34747,20.21573l6.04293,3.77827l2.39653,-6.708l8.93253,-25.02027M83.13333,0l-14.33333,40.13333l-45.86667,-28.66667l17.2,51.6l-40.13333,14.33333l40.13333,20.06667l-22.93333,40.13333l45.86667,-17.2l14.33333,51.6l20.06667,-45.86667l51.6,17.2l-22.93333,-45.86667l45.86667,-14.33333l-51.6,-14.33333l28.66667,-45.86667l-51.6,17.2l-14.33333,-40.13333z" fill="#c74343"></path><path d="M80.26667,74.53333l-17.2,-11.46667l5.73333,22.93333l-11.46667,17.2l20.06667,-2.86667l5.73333,20.06667l8.6,-25.8l20.06667,-8.6l-20.06667,-5.73333v-22.93333z" fill="#ffeea3"></path></g></g></svg>