<svg xmlns="http://www.w3.org/2000/svg" x="0px" y="0px"
width="64" height="64"
viewBox="0 0 172 172"
style=" fill:#000000;"><g fill="none" fill-rule="nonzero" stroke="none" stroke-width="1" stroke-linecap="butt" stroke-linejoin="miter" stroke-miterlimit="10" stroke-dasharray="" stroke-dashoffset="0" font-family="none" font-weight="none" font-size="none" text-anchor="none" style="mix-blend-mode: normal"><path d="M0,172v-172h172v172z" fill="none"></path><g><path d="M134.375,110.1875l32.25,-64.5l-61.8125,37.625l-21.5,-64.5l-16.125,59.125l-45.6875,-29.5625l24.1875,64.5l-40.3125,13.4375l43,18.8125l13.4375,5.375h48.375l21.5,-5.375l38.96875,-17.46875z" fill="#f283a5"></path><path d="M61.8125,150.5l8.0625,-10.75l-18.8125,-10.75l21.5,-2.6875l-10.75,-26.875l18.8125,16.125l2.6875,-26.875l8.0625,29.5625l21.5,-16.125l-13.4375,26.875h24.1875l-21.5,13.4375l8.0625,8.0625z" fill="#f9dd8f"></path><path d="M131.69019,147.8125c-0.99975,0 -1.95919,-0.559 -2.42413,-1.52113c-0.64231,-1.33837 -0.08063,-2.94281 1.25775,-3.58781l32.59669,-15.69769l-29.90919,-14.39694c-1.33837,-0.64231 -1.90006,-2.24944 -1.25775,-3.58513c0.64769,-1.33837 2.25481,-1.89737 3.58781,-1.25506l34.9375,16.81838c0.92988,0.44344 1.52113,1.38675 1.52113,2.41875c0,1.032 -0.59125,1.97263 -1.52113,2.42144l-37.625,18.11912c-0.37625,0.18006 -0.774,0.26606 -1.16369,0.26606z" fill="#302937"></path><path d="M48.375,147.8125c-0.34669,0 -0.69606,-0.06719 -1.03469,-0.20963l-45.6875,-19.05169c-1.04544,-0.43537 -1.70656,-1.48081 -1.65012,-2.61225c0.05644,-1.12875 0.81431,-2.107 1.89738,-2.43756l40.205,-12.341l-25.55813,-63.75019c-0.43806,-1.08844 -0.11825,-2.33544 0.79012,-3.07988c0.90837,-0.74712 2.193,-0.81431 3.17662,-0.16931l45.01294,29.4765l15.07687,-58.18706c0.301,-1.15831 1.32763,-1.978 2.52625,-2.01294c0.02419,0 0.05106,0 0.07525,0c1.16638,0 2.19837,0.74981 2.5585,1.86512l20.56206,63.94369l58.03119,-35.27881c1.27119,-0.76863 2.92131,-0.3655 3.69263,0.90031c0.77131,1.2685 0.36819,2.92131 -0.90031,3.69262l-60.93906,37.04719c-0.70413,0.42731 -1.56413,0.50525 -2.33544,0.22306c-0.76863,-0.28756 -1.36794,-0.91106 -1.62056,-1.69581l-18.77219,-58.36712l-13.6955,52.84431c-0.21769,0.8385 -0.82506,1.51844 -1.63131,1.83288c-0.80625,0.31444 -1.72,0.21769 -2.44025,-0.258l-41.00319,-26.84544l23.46725,58.53375c0.2795,0.69875 0.25531,1.48081 -0.06719,2.15806c-0.32519,0.67725 -0.91912,1.19056 -1.63669,1.41094l-35.8835,11.01338l38.81556,16.18681c1.37063,0.56975 2.01831,2.14463 1.44588,3.51525c-0.42731,1.032 -1.42438,1.65281 -2.47788,1.65281z" fill="#302937"></path><path d="M158.98444,68.83225c-0.39506,0 -0.80087,-0.08869 -1.17981,-0.27681l-4.82406,-2.36769c-1.333,-0.65306 -1.88125,-2.26288 -1.22819,-3.59588c0.65306,-1.333 2.26288,-1.88394 3.59588,-1.22819l4.82406,2.36769c1.333,0.65306 1.88125,2.26287 1.22819,3.59588c-0.46762,0.95406 -1.42437,1.505 -2.41606,1.505z" fill="#302937"></path><path d="M153.14181,80.73519c-0.39506,0 -0.80087,-0.08869 -1.17981,-0.27681l-4.82406,-2.36769c-1.333,-0.65306 -1.88125,-2.26288 -1.22819,-3.59588c0.65306,-1.333 2.26288,-1.88394 3.59588,-1.22819l4.82406,2.36769c1.333,0.65306 1.88125,2.26287 1.22819,3.59588c-0.46762,0.95137 -1.42169,1.505 -2.41606,1.505z" fill="#302937"></path><path d="M147.30188,92.63544c-0.39506,0 -0.80087,-0.08869 -1.17981,-0.27681l-4.82406,-2.36769c-1.333,-0.65306 -1.88125,-2.26287 -1.22819,-3.59588c0.65037,-1.333 2.26019,-1.88394 3.59587,-1.22819l4.82406,2.36769c1.333,0.65306 1.88125,2.26287 1.22819,3.59588c-0.47031,0.95406 -1.42437,1.505 -2.41606,1.505z" fill="#302937"></path><path d="M141.45925,104.53838c-0.39506,0 -0.80087,-0.08869 -1.17981,-0.27681l-4.82406,-2.36769c-1.333,-0.65306 -1.88125,-2.26288 -1.22819,-3.59588c0.65306,-1.333 2.26019,-1.88394 3.59587,-1.22819l4.82137,2.36769c1.333,0.65306 1.88125,2.26287 1.22819,3.59588c-0.46762,0.95406 -1.42169,1.505 -2.41338,1.505z" fill="#302937"></path><g fill="#302937"><path d="M61.80981,153.1875c-0.56169,0 -1.12606,-0.17469 -1.60981,-0.5375c-1.18787,-0.88956 -1.42975,-2.57462 -0.5375,-3.7625l6.235,-8.31512l-16.17069,-9.23963c-1.00512,-0.57244 -1.52919,-1.72537 -1.30075,-2.8595c0.22575,-1.13412 1.15563,-1.99681 2.3005,-2.13925l17.87456,-2.236l-11.92712,-26.23806c-0.52406,-1.15294 -0.172,-2.51281 0.84119,-3.268c1.01588,-0.74981 2.42413,-0.69606 3.37281,0.13437l17.65419,15.44775l0.03494,-0.29831c0.172,-1.47006 1.46738,-2.53431 2.98044,-2.35694c1.47275,0.172 2.52894,1.50769 2.35694,2.98044l-0.62619,5.375c-0.11556,0.99169 -0.77131,1.83825 -1.70388,2.19569c-0.92987,0.35744 -1.98337,0.172 -2.73587,-0.48644l-12.13406,-10.61563l8.28556,18.232c0.35475,0.77669 0.31713,1.677 -0.09944,2.42413c-0.41656,0.74444 -1.16638,1.247 -2.01294,1.3545l-13.49931,1.68775l11.81425,6.751c0.66919,0.38163 1.14219,1.03469 1.29806,1.78987c0.15588,0.75519 -0.0215,1.53994 -0.48375,2.15806l-8.0625,10.75c-0.51869,0.70144 -1.32494,1.07231 -2.14463,1.07231z"></path></g><g fill="#302937"><path d="M116.64019,137.0625c-0.946,0 -1.85975,-0.49988 -2.35156,-1.38138c-0.72294,-1.29806 -0.25531,-2.93475 1.04544,-3.655l0.61006,-0.33863h-16.50663c-0.96212,0 -1.849,-0.51331 -2.33006,-1.34913c-0.48106,-0.83581 -0.47569,-1.85975 0.00806,-2.69288l11.53744,-19.77462l-15.59825,12.47806c-0.74175,0.59125 -1.74419,0.74981 -2.62838,0.41656c-0.88687,-0.33594 -1.53187,-1.11263 -1.6985,-2.04519l-3.48031,-19.60531l-0.07256,0.63156c-0.172,1.47275 -1.4835,2.5585 -2.97775,2.35694c-1.47544,-0.16931 -2.53163,-1.505 -2.35963,-2.98044l2.18762,-18.8125c0.15588,-1.32494 1.25506,-2.33544 2.58806,-2.37575c1.44588,-0.086 2.494,0.903 2.72781,2.21719l5.891,33.16913l23.34094,-18.67275c1.01587,-0.80894 2.45638,-0.78475 3.43462,0.0645c0.98094,0.84387 1.21744,2.27094 0.56706,3.38894l-16.45825,28.21069h22.19606c1.2255,0 2.29512,0.82775 2.6015,2.01294c0.30637,1.18519 -0.22575,2.4295 -1.29538,3.02344l-9.675,5.375c-0.41388,0.22844 -0.86269,0.33863 -1.30344,0.33863z"></path></g><g fill="#302937"><path d="M110.24931,153.1875c-0.68531,0 -1.37062,-0.26069 -1.892,-0.77937l-8.12431,-8.0625c-0.602,-0.59663 -0.88419,-1.43781 -0.76863,-2.27631c0.11556,-0.8385 0.61544,-1.5695 1.35719,-1.98069l5.375,-2.98581c1.29538,-0.72294 2.93206,-0.24994 3.65231,1.04275c0.72294,1.29806 0.25531,2.93475 -1.04544,3.655l-2.24675,1.24969l5.58463,5.54162c1.05619,1.04544 1.06156,2.74662 0.01613,3.80281c-0.52406,0.52675 -1.21744,0.79281 -1.90813,0.79281z"></path></g></g></g></svg>