<svg xmlns="http://www.w3.org/2000/svg" x="0px" y="0px"
width="64" height="64"
viewBox="0 0 172 172"
style=" fill:#000000;"><g fill="none" fill-rule="nonzero" stroke="none" stroke-width="1" stroke-linecap="butt" stroke-linejoin="miter" stroke-miterlimit="10" stroke-dasharray="" stroke-dashoffset="0" font-family="none" font-weight="none" font-size="none" text-anchor="none" style="mix-blend-mode: normal"><path d="M0,172v-172h172v172z" fill="none"></path><g><path d="M76.59375,30.90625h26.875v22.84375h-26.875z" fill="#f8e390"></path><path d="M90.03125,12.09375v0c-7.39062,0 -13.4375,6.04688 -13.4375,13.4375v5.375h26.875v-5.375c0,-7.39062 -5.9125,-13.4375 -13.4375,-13.4375zM117.30938,145.125h-53.75l6.71875,-91.375h40.3125z" fill="#f37778"></path><path d="M114.62188,141.09375h-48.375c-2.28438,0 -4.03125,-1.74687 -4.03125,-4.03125c0,-2.28438 1.74687,-4.03125 4.03125,-4.03125h48.375c2.28437,0 4.03125,1.74687 4.03125,4.03125c0,2.28438 -1.88125,4.03125 -4.03125,4.03125zM109.24688,64.5h-37.625c-2.28438,0 -4.03125,-1.74687 -4.03125,-4.03125c0,-2.28438 1.74687,-4.03125 4.03125,-4.03125h37.625c2.28437,0 4.03125,1.74687 4.03125,4.03125c0,2.28438 -1.88125,4.03125 -4.03125,4.03125zM65.17188,123.75938l49.45,-18.00625l-2.55312,-28.62188l-44.34375,16.125z" fill="#ffffff"></path><path d="M90.43438,149.15625c-4.43438,0 -8.0625,-3.62813 -8.0625,-8.0625v-10.75c0,-4.43438 3.62812,-8.0625 8.0625,-8.0625c4.43437,0 8.0625,3.62812 8.0625,8.0625v10.75c0,4.43437 -3.62813,8.0625 -8.0625,8.0625zM90.43438,104.8125c-1.34375,0 -2.82188,-0.5375 -3.7625,-1.6125c-0.94062,-1.075 -1.6125,-2.41875 -1.6125,-3.7625c0,-1.47812 0.5375,-2.82187 1.6125,-3.7625c1.075,-0.94062 2.41875,-1.6125 3.7625,-1.6125c1.34375,0 2.82187,0.5375 3.7625,1.6125c0.94063,1.075 1.6125,2.41875 1.6125,3.7625c0,1.34375 -0.5375,2.82187 -1.6125,3.7625c-0.94062,1.075 -2.41875,1.6125 -3.7625,1.6125zM90.43438,80.625c-1.34375,0 -2.82188,-0.5375 -3.7625,-1.6125c-0.94062,-1.075 -1.6125,-2.41875 -1.6125,-3.7625c0,-1.47813 0.5375,-2.82188 1.6125,-3.7625c1.075,-0.94062 2.41875,-1.6125 3.7625,-1.6125c1.47812,0 2.82187,0.5375 3.7625,1.6125c0.94063,1.075 1.6125,2.41875 1.6125,3.7625c0,1.34375 -0.5375,2.82188 -1.6125,3.7625c-0.94062,1.075 -2.41875,1.6125 -3.7625,1.6125z" fill="#454b54"></path><path d="M141.49687,162.72813h-22.44062h-74.04062l-6.71875,-0.40313l18.54375,-17.2h67.1875z" fill="#7ca5c6"></path><path d="M135.71875,151.17188l-8.86875,-8.86875c-0.80625,-0.80625 -1.74688,-1.20937 -2.82187,-1.20937h-2.95625l-6.18125,-83.71562c1.47812,-0.67187 2.41875,-2.01562 2.41875,-3.62813c0,-2.28438 -1.74688,-4.03125 -4.03125,-4.03125h-2.6875h-3.09063v-14.78125c2.28437,0 4.03125,-1.74688 4.03125,-4.03125c0,-2.28438 -1.74688,-4.03125 -4.03125,-4.03125v-1.34375c0,-8.19687 -5.77813,-15.18437 -13.4375,-16.93125v-3.225c0,-2.28438 -1.74688,-4.03125 -4.03125,-4.03125c-2.28437,0 -4.03125,1.74687 -4.03125,4.03125v3.225c-7.65937,1.74688 -13.4375,8.73438 -13.4375,16.93125v1.34375c-2.28437,0 -4.03125,1.74687 -4.03125,4.03125c0,2.28437 1.74688,4.03125 4.03125,4.03125v14.78125h-2.41875h-2.6875c-2.28437,0 -4.03125,1.74687 -4.03125,4.03125c0,1.6125 0.94063,3.09062 2.41875,3.62813l-6.04687,83.71562h-2.95625c-1.075,0 -2.01562,0.40312 -2.6875,1.075l-8.73437,8.0625c-1.6125,1.47813 -1.74687,4.03125 -0.26875,5.64375c1.47813,1.6125 4.03125,1.74687 5.64375,0.26875l7.525,-6.9875h5.10625h53.75v0h5.10625l7.79375,7.79375c0.80625,0.80625 1.88125,1.20938 2.82188,1.20938c0.94062,0 2.01563,-0.40313 2.82187,-1.20938c1.6125,-1.6125 1.6125,-4.16562 0,-5.77812zM80.625,25.53125c0,-5.24063 4.16563,-9.40625 9.40625,-9.40625c5.24063,0 9.40625,4.16562 9.40625,9.40625v1.34375h-18.8125zM80.625,34.9375h18.8125v14.78125h-18.8125zM67.85938,141.09375l6.18125,-83.3125h32.7875l6.18125,83.3125z" fill="#454b54"></path><path d="M104.8125,169.3125c-0.13437,0 -0.13437,0 -0.26875,0c-5.24063,0 -10.2125,-1.88125 -14.10937,-5.24062c-3.89688,3.225 -8.73437,4.97187 -13.84063,4.97187c-5.10625,0 -10.07812,-1.74687 -13.975,-4.97187c-3.89687,3.225 -8.73437,4.97187 -13.975,4.97187c-5.10625,0 -10.07812,-1.74687 -13.975,-4.97187c-3.89687,3.225 -8.73437,4.97187 -13.975,4.97187v0c-6.58437,0 -12.9,-2.95625 -17.06562,-8.19687c-1.34375,-1.74688 -1.075,-4.3 0.67188,-5.64375c1.74688,-1.34375 4.3,-1.075 5.64375,0.67188c2.6875,3.225 6.58438,5.10625 10.75,5.10625v0c4.16563,0 8.19688,-1.88125 10.75,-5.10625c0.80625,-0.94063 1.88125,-1.47813 3.09063,-1.47813v0c1.20937,0 2.41875,0.5375 3.09062,1.47813c2.6875,3.225 6.58438,5.10625 10.75,5.10625c4.16563,0 8.19688,-1.88125 10.75,-5.10625c0.80625,-0.94063 1.88125,-1.47813 3.09062,-1.47813c1.20938,0 2.41875,0.5375 3.09063,1.47813c2.6875,3.225 6.58437,5.10625 10.75,5.10625c4.16562,0 8.19687,-1.88125 10.75,-5.10625c0.80625,-0.94063 1.88125,-1.47813 3.09063,-1.47813v0c1.20938,0 2.41875,0.5375 3.09062,1.47813l0.26875,0.26875c2.55313,3.225 6.45,5.10625 10.61563,5.10625h0.13437c4.16562,0 7.92813,-1.74687 10.61563,-4.97188l0.5375,-0.5375c0.80625,-0.94063 1.88125,-1.47813 3.09063,-1.47813c1.20938,0 2.28437,0.5375 3.09063,1.47813c2.6875,3.225 6.58437,5.10625 10.75,5.10625c2.28438,0 4.03125,1.74687 4.03125,4.03125c0,2.28438 -1.74687,4.03125 -4.03125,4.03125c-5.10625,0 -9.94375,-1.74687 -13.84062,-4.97188c-3.09063,3.49375 -8.19687,5.375 -13.4375,5.375zM161.25,169.04375c-1.075,0 -2.15,-0.40312 -2.82188,-1.20937c-0.67187,-0.80625 -1.20937,-1.74687 -1.20937,-2.82188c0,-1.075 0.40312,-2.15 1.20937,-2.82187c1.47813,-1.47813 4.16563,-1.47813 5.64375,0c0.80625,0.80625 1.20938,1.74687 1.20938,2.82187c0,1.075 -0.40313,2.15 -1.20938,2.82188c-0.67187,0.80625 -1.74688,1.20937 -2.82188,1.20937z" fill="#454b54"></path><path d="M132.89688,169.04375c-6.71875,0 -12.9,-2.95625 -17.06562,-8.19687c-1.34375,-1.74688 -1.075,-4.3 0.67188,-5.64375c1.74688,-1.34375 4.3,-1.075 5.64375,0.67188c2.6875,3.225 6.58438,5.10625 10.75,5.10625c4.16563,0 8.19688,-1.88125 10.75,-5.10625c1.34375,-1.74687 3.89688,-2.01562 5.64375,-0.67187c1.74687,1.34375 2.01563,3.89687 0.67188,5.64375c-4.16563,5.10625 -10.34688,8.19687 -17.06563,8.19687z" fill="#454b54"></path></g></g></svg>