<svg xmlns="http://www.w3.org/2000/svg" x="0px" y="0px"
width="64" height="64"
viewBox="0 0 172 172"
style=" fill:#000000;"><g fill="none" fill-rule="nonzero" stroke="none" stroke-width="1" stroke-linecap="butt" stroke-linejoin="miter" stroke-miterlimit="10" stroke-dasharray="" stroke-dashoffset="0" font-family="none" font-weight="none" font-size="none" text-anchor="none" style="mix-blend-mode: normal"><path d="M0,172v-172h172v172z" fill="none"></path><g><path d="M117.175,52.40625c0,-8.46562 -15.05,-31.57812 -15.05,-31.57812c0,0 -15.05,23.1125 -15.05,31.57813c0,8.46562 6.71875,15.45313 15.05,15.45313c8.33125,0 15.05,-6.85312 15.05,-15.45312z" fill="#f8e390"></path><path d="M102.125,71.89063c-10.48125,0 -19.08125,-8.73437 -19.08125,-19.48437c0,-9.27188 13.03437,-29.83125 15.72187,-33.8625c0.67188,-1.075 2.01563,-1.74687 3.35938,-1.74687c1.34375,0 2.6875,0.67188 3.35938,1.88125c2.6875,4.03125 15.72187,24.59063 15.72187,33.8625c0,10.61563 -8.6,19.35 -19.08125,19.35zM102.125,28.4875c-5.375,8.86875 -11.01875,19.8875 -11.01875,23.91875c0,6.31563 4.97187,11.42188 11.01875,11.42188c6.04688,0 11.01875,-5.10625 11.01875,-11.42187c0,-4.03125 -5.64375,-15.05 -11.01875,-23.91875z" fill="#454b54"></path><path d="M102.125,63.02188c-2.95625,0 -5.375,-2.55313 -5.375,-5.64375c0.13437,-1.88125 2.28437,-6.71875 5.375,-12.49688c3.09063,5.77812 5.24063,10.61563 5.375,12.63125c0,2.95625 -2.41875,5.50938 -5.375,5.50938z" fill="#ffffff"></path><path d="M124.96875,148.48438h-45.6875c-7.39062,0 -13.4375,-6.04687 -13.4375,-13.4375v-38.96875h72.5625v38.96875c0,7.39063 -6.04687,13.4375 -13.4375,13.4375" fill="#88a0ba"></path><path d="M138.40625,96.07813h-13.4375v38.96875c0,7.39063 -6.04687,13.4375 -13.4375,13.4375h13.4375c7.39063,0 13.4375,-6.04687 13.4375,-13.4375v-38.96875" fill="#6f8399"></path><path d="M83.58125,63.82813h37.0875v32.25h-37.0875v-32.25" fill="#ffffff"></path><path d="M120.66875,85.32813h-37.0875v10.75h37.0875v-10.75" fill="#cecfd0"></path><path d="M65.84375,96.07813h-18.8125c-7.39062,0 -13.4375,-6.04687 -13.4375,-13.4375v-45.6875c0,-7.39062 6.04688,-13.4375 13.4375,-13.4375h18.8125v72.5625" fill="#88a0ba"></path><path d="M33.59375,69.20313v13.4375c0,7.39063 6.04688,13.4375 13.4375,13.4375h18.8125v-13.4375h-18.8125c-7.39062,0 -13.4375,-6.04687 -13.4375,-13.4375" fill="#6f8399"></path><path d="M79.28125,126.98438c-2.28437,0 -4.03125,-1.74688 -4.03125,-4.03125v-25.53125c0,-2.28437 1.74688,-4.03125 4.03125,-4.03125c2.28437,0 4.03125,1.74688 4.03125,4.03125v25.53125c0,2.28437 -1.74688,4.03125 -4.03125,4.03125z" fill="#ffffff"></path><path d="M124.96875,152.51563h-45.6875c-9.675,0 -17.46875,-7.79375 -17.46875,-17.46875v-38.96875c0,-2.28437 1.74687,-4.03125 4.03125,-4.03125h72.5625c2.28438,0 4.03125,1.74688 4.03125,4.03125v38.96875c0,9.675 -7.79375,17.46875 -17.46875,17.46875zM69.875,100.10938v34.9375c0,5.24062 4.16563,9.40625 9.40625,9.40625h45.6875c5.24062,0 9.40625,-4.16563 9.40625,-9.40625v-34.9375z" fill="#454b54"></path><path d="M120.66875,100.10938h-37.0875c-2.28437,0 -4.03125,-1.74688 -4.03125,-4.03125v-32.25c0,-2.28438 1.74688,-4.03125 4.03125,-4.03125h37.0875c2.28437,0 4.03125,1.74687 4.03125,4.03125v32.25c0,2.28437 -1.88125,4.03125 -4.03125,4.03125zM87.6125,92.04688h29.025v-24.1875h-29.025z" fill="#454b54"></path><path d="M95.675,83.98438c-1.075,0 -2.15,-0.40313 -2.82187,-1.20937c-0.80625,-0.80625 -1.20938,-1.74688 -1.20938,-2.82188c0,-1.075 0.40313,-2.15 1.20938,-2.82188c1.47812,-1.47812 4.16562,-1.47812 5.64375,0c0.80625,0.80625 1.20938,1.74688 1.20938,2.82188c0,1.075 -0.40313,2.15 -1.20938,2.82188c-0.67188,0.80625 -1.74688,1.20937 -2.82188,1.20937zM109.1125,83.98438c-1.075,0 -2.15,-0.40313 -2.82187,-1.20937c-0.80625,-0.80625 -1.20938,-1.74688 -1.20938,-2.82188c0,-1.075 0.40313,-2.15 1.20938,-2.82188c1.47812,-1.47812 4.16562,-1.47812 5.64375,0c0.80625,0.80625 1.20938,1.74688 1.20938,2.82188c0,1.075 -0.40313,2.15 -1.20938,2.82188c-0.67188,0.80625 -1.74688,1.20937 -2.82188,1.20937z" fill="#454b54"></path><path d="M63.15625,40.98438h-14.78125c-2.28438,0 -4.03125,-1.74688 -4.03125,-4.03125c0,-2.28437 1.74687,-4.03125 4.03125,-4.03125h14.78125c2.28437,0 4.03125,1.74688 4.03125,4.03125c0,2.28437 -1.74688,4.03125 -4.03125,4.03125z" fill="#ffffff"></path><path d="M65.84375,100.10938h-18.8125c-9.675,0 -17.46875,-7.79375 -17.46875,-17.46875v-45.6875c0,-9.675 7.79375,-17.46875 17.46875,-17.46875h18.8125c2.28437,0 4.03125,1.74687 4.03125,4.03125v72.5625c0,2.28437 -1.74688,4.03125 -4.03125,4.03125zM47.03125,27.54688c-5.24063,0 -9.40625,4.16563 -9.40625,9.40625v45.6875c0,5.24063 4.16562,9.40625 9.40625,9.40625h14.78125v-64.5z" fill="#454b54"></path></g></g></svg>