<svg xmlns="http://www.w3.org/2000/svg" x="0px" y="0px"
width="64" height="64"
viewBox="0 0 172 172"
style=" fill:#000000;"><g fill="none" fill-rule="nonzero" stroke="none" stroke-width="1" stroke-linecap="butt" stroke-linejoin="miter" stroke-miterlimit="10" stroke-dasharray="" stroke-dashoffset="0" font-family="none" font-weight="none" font-size="none" text-anchor="none" style="mix-blend-mode: normal"><path d="M0,172v-172h172v172z" fill="none"></path><g><path d="M135.71875,38.96875h26.875v-13.4375c0,-7.39062 -6.04687,-13.4375 -13.4375,-13.4375v0c-7.39062,0 -13.4375,6.04688 -13.4375,13.4375z" fill="#e7b847"></path><path d="M149.15625,12.09375h-112.875c-7.39062,0 -13.4375,6.04688 -13.4375,13.4375v134.375h99.4375c7.39063,0 13.4375,-6.04687 13.4375,-13.4375v-120.9375c0,-7.39062 6.04688,-13.4375 13.4375,-13.4375z" fill="#ffecad"></path><path d="M108.84375,83.3125h-59.125c-2.28438,0 -4.03125,-1.74688 -4.03125,-4.03125c0,-2.28437 1.74687,-4.03125 4.03125,-4.03125h59.125c2.28437,0 4.03125,1.74688 4.03125,4.03125c0,2.28437 -1.74688,4.03125 -4.03125,4.03125zM95.40625,43h-32.25c-2.28438,0 -4.03125,-1.74688 -4.03125,-4.03125c0,-2.28437 1.74687,-4.03125 4.03125,-4.03125h32.25c2.28437,0 4.03125,1.74688 4.03125,4.03125c0,2.28437 -1.74688,4.03125 -4.03125,4.03125z" fill="#e7b847"></path><path d="M108.84375,146.46875v-13.4375h-99.4375v13.4375c0,7.39063 6.04688,13.4375 13.4375,13.4375h99.4375c-7.39062,0 -13.4375,-6.04687 -13.4375,-13.4375z" fill="#ffecad"></path><path d="M149.15625,8.0625h-112.875c-9.675,0 -17.46875,7.79375 -17.46875,17.46875v90.03125c0,2.28437 1.74687,4.03125 4.03125,4.03125c2.28438,0 4.03125,-1.74688 4.03125,-4.03125v-90.03125c0,-5.24063 4.16563,-9.40625 9.40625,-9.40625h98.09375c-1.74687,2.6875 -2.6875,5.9125 -2.6875,9.40625v120.9375c0,5.24062 -4.16562,9.40625 -9.40625,9.40625c-5.24063,0 -9.40625,-4.16563 -9.40625,-9.40625v-13.4375c0,-2.28438 -1.74688,-4.03125 -4.03125,-4.03125h-99.4375c-2.28437,0 -4.03125,1.74687 -4.03125,4.03125v13.4375c0,9.675 7.79375,17.46875 17.46875,17.46875h99.4375c9.675,0 17.46875,-7.79375 17.46875,-17.46875v-120.9375c0,-5.24063 4.16563,-9.40625 9.40625,-9.40625c5.24062,0 9.40625,4.16562 9.40625,9.40625v9.40625h-9.40625c-2.28438,0 -4.03125,1.74688 -4.03125,4.03125c0,2.28437 1.74687,4.03125 4.03125,4.03125h13.4375c2.28438,0 4.03125,-1.74688 4.03125,-4.03125v-13.4375c0,-9.675 -7.79375,-17.46875 -17.46875,-17.46875zM22.84375,155.875c-5.24063,0 -9.40625,-4.16563 -9.40625,-9.40625v-9.40625h91.375v9.40625c0,3.49375 1.075,6.71875 2.6875,9.40625z" fill="#444b54"></path><path d="M88.95625,103.46875h-38.96875c-2.28438,0 -4.03125,-1.74688 -4.03125,-4.03125c0,-2.28437 1.74687,-4.03125 4.03125,-4.03125h38.96875c2.28438,0 4.03125,1.74688 4.03125,4.03125c0,2.28437 -1.74687,4.03125 -4.03125,4.03125zM109.1125,103.46875h-0.26875c-2.28437,0 -4.03125,-1.74688 -4.03125,-4.03125c0,-2.28437 1.74688,-4.03125 4.03125,-4.03125h0.26875c2.28438,0 4.03125,1.74688 4.03125,4.03125c0,2.28437 -1.74687,4.03125 -4.03125,4.03125z" fill="#e7b847"></path></g></g></svg>