<svg xmlns="http://www.w3.org/2000/svg" x="0px" y="0px"
width="64" height="64"
viewBox="0 0 172 172"
style=" fill:#000000;"><g fill="none" fill-rule="nonzero" stroke="none" stroke-width="1" stroke-linecap="butt" stroke-linejoin="miter" stroke-miterlimit="10" stroke-dasharray="" stroke-dashoffset="0" font-family="none" font-weight="none" font-size="none" text-anchor="none" style="mix-blend-mode: normal"><path d="M0,172v-172h172v172z" fill="none"></path><g><path d="M126.3125,22.17188h-80.625c-3.7625,0 -6.71875,2.95625 -6.71875,6.71875v53.75h94.0625v-53.75c0,-3.7625 -2.95625,-6.71875 -6.71875,-6.71875z" fill="#ffffff"></path><path d="M114.89063,69.20313h-75.92187v9.40625h75.92188c2.55313,0 4.70313,-2.15 4.70313,-4.70312v0c0,-2.55312 -2.15,-4.70312 -4.70312,-4.70312z" fill="#c3dbea"></path><path d="M133.03125,73.23438c-2.28438,0 -4.03125,-1.74688 -4.03125,-4.03125v-40.3125c0,-1.47813 -1.20938,-2.6875 -2.6875,-2.6875h-80.625c-1.47812,0 -2.6875,1.20937 -2.6875,2.6875v40.3125c0,2.28437 -1.74688,4.03125 -4.03125,4.03125c-2.28437,0 -4.03125,-1.74688 -4.03125,-4.03125v-40.3125c0,-5.9125 4.8375,-10.75 10.75,-10.75h80.625c5.9125,0 10.75,4.8375 10.75,10.75v40.3125c0,2.28437 -1.74687,4.03125 -4.03125,4.03125z" fill="#444b54"></path><path d="M133.03125,82.64063h-94.0625c-7.39062,0 -13.4375,6.04688 -13.4375,13.4375v53.75h120.9375v-53.75c0,-7.39062 -6.04687,-13.4375 -13.4375,-13.4375z" fill="#6dc289"></path><path d="M129,137.73438h-103.46875v8.0625h103.46875c2.28438,0 4.03125,-1.74687 4.03125,-4.03125v0c0,-2.28438 -1.74687,-4.03125 -4.03125,-4.03125z" fill="#47a66a"></path><path d="M38.96875,92.04688c-2.2264,0 -4.03125,1.80485 -4.03125,4.03125c0,2.2264 1.80485,4.03125 4.03125,4.03125c2.2264,0 4.03125,-1.80485 4.03125,-4.03125c0,-2.2264 -1.80485,-4.03125 -4.03125,-4.03125zM52.40625,92.04688c-2.2264,0 -4.03125,1.80485 -4.03125,4.03125c0,2.2264 1.80485,4.03125 4.03125,4.03125c2.2264,0 4.03125,-1.80485 4.03125,-4.03125c0,-2.2264 -1.80485,-4.03125 -4.03125,-4.03125zM65.84375,92.04688c-2.2264,0 -4.03125,1.80485 -4.03125,4.03125c0,2.2264 1.80485,4.03125 4.03125,4.03125c2.2264,0 4.03125,-1.80485 4.03125,-4.03125c0,-2.2264 -1.80485,-4.03125 -4.03125,-4.03125zM79.28125,92.04688c-2.2264,0 -4.03125,1.80485 -4.03125,4.03125c0,2.2264 1.80485,4.03125 4.03125,4.03125c2.2264,0 4.03125,-1.80485 4.03125,-4.03125c0,-2.2264 -1.80485,-4.03125 -4.03125,-4.03125zM92.71875,92.04688c-2.2264,0 -4.03125,1.80485 -4.03125,4.03125c0,2.2264 1.80485,4.03125 4.03125,4.03125c2.2264,0 4.03125,-1.80485 4.03125,-4.03125c0,-2.2264 -1.80485,-4.03125 -4.03125,-4.03125zM106.15625,92.04688c-2.2264,0 -4.03125,1.80485 -4.03125,4.03125c0,2.2264 1.80485,4.03125 4.03125,4.03125c2.2264,0 4.03125,-1.80485 4.03125,-4.03125c0,-2.2264 -1.80485,-4.03125 -4.03125,-4.03125zM119.59375,92.04688c-2.2264,0 -4.03125,1.80485 -4.03125,4.03125c0,2.2264 1.80485,4.03125 4.03125,4.03125c2.2264,0 4.03125,-1.80485 4.03125,-4.03125c0,-2.2264 -1.80485,-4.03125 -4.03125,-4.03125zM133.03125,92.04688c-2.2264,0 -4.03125,1.80485 -4.03125,4.03125c0,2.2264 1.80485,4.03125 4.03125,4.03125c2.2264,0 4.03125,-1.80485 4.03125,-4.03125c0,-2.2264 -1.80485,-4.03125 -4.03125,-4.03125z" fill="#ffffff"></path><g fill="#ffffff"><path d="M45.6875,102.79688c-2.2264,0 -4.03125,1.80485 -4.03125,4.03125c0,2.2264 1.80485,4.03125 4.03125,4.03125c2.2264,0 4.03125,-1.80485 4.03125,-4.03125c0,-2.2264 -1.80485,-4.03125 -4.03125,-4.03125zM59.125,102.79688c-2.2264,0 -4.03125,1.80485 -4.03125,4.03125c0,2.2264 1.80485,4.03125 4.03125,4.03125c2.2264,0 4.03125,-1.80485 4.03125,-4.03125c0,-2.2264 -1.80485,-4.03125 -4.03125,-4.03125zM72.5625,102.79688c-2.2264,0 -4.03125,1.80485 -4.03125,4.03125c0,2.2264 1.80485,4.03125 4.03125,4.03125c2.2264,0 4.03125,-1.80485 4.03125,-4.03125c0,-2.2264 -1.80485,-4.03125 -4.03125,-4.03125zM86,102.79688c-2.2264,0 -4.03125,1.80485 -4.03125,4.03125c0,2.2264 1.80485,4.03125 4.03125,4.03125c2.2264,0 4.03125,-1.80485 4.03125,-4.03125c0,-2.2264 -1.80485,-4.03125 -4.03125,-4.03125zM99.4375,102.79688c-2.2264,0 -4.03125,1.80485 -4.03125,4.03125c0,2.2264 1.80485,4.03125 4.03125,4.03125c2.2264,0 4.03125,-1.80485 4.03125,-4.03125c0,-2.2264 -1.80485,-4.03125 -4.03125,-4.03125zM112.875,102.79688c-2.2264,0 -4.03125,1.80485 -4.03125,4.03125c0,2.2264 1.80485,4.03125 4.03125,4.03125c2.2264,0 4.03125,-1.80485 4.03125,-4.03125c0,-2.2264 -1.80485,-4.03125 -4.03125,-4.03125zM126.3125,102.79688c-2.2264,0 -4.03125,1.80485 -4.03125,4.03125c0,2.2264 1.80485,4.03125 4.03125,4.03125c2.2264,0 4.03125,-1.80485 4.03125,-4.03125c0,-2.2264 -1.80485,-4.03125 -4.03125,-4.03125z"></path></g><g fill="#ffffff"><path d="M38.96875,113.54688c-2.2264,0 -4.03125,1.80485 -4.03125,4.03125c0,2.2264 1.80485,4.03125 4.03125,4.03125c2.2264,0 4.03125,-1.80485 4.03125,-4.03125c0,-2.2264 -1.80485,-4.03125 -4.03125,-4.03125zM52.40625,113.54688c-2.2264,0 -4.03125,1.80485 -4.03125,4.03125c0,2.2264 1.80485,4.03125 4.03125,4.03125c2.2264,0 4.03125,-1.80485 4.03125,-4.03125c0,-2.2264 -1.80485,-4.03125 -4.03125,-4.03125zM65.84375,113.54688c-2.2264,0 -4.03125,1.80485 -4.03125,4.03125c0,2.2264 1.80485,4.03125 4.03125,4.03125c2.2264,0 4.03125,-1.80485 4.03125,-4.03125c0,-2.2264 -1.80485,-4.03125 -4.03125,-4.03125zM79.28125,113.54688c-2.2264,0 -4.03125,1.80485 -4.03125,4.03125c0,2.2264 1.80485,4.03125 4.03125,4.03125c2.2264,0 4.03125,-1.80485 4.03125,-4.03125c0,-2.2264 -1.80485,-4.03125 -4.03125,-4.03125zM92.71875,113.54688c-2.2264,0 -4.03125,1.80485 -4.03125,4.03125c0,2.2264 1.80485,4.03125 4.03125,4.03125c2.2264,0 4.03125,-1.80485 4.03125,-4.03125c0,-2.2264 -1.80485,-4.03125 -4.03125,-4.03125zM106.15625,113.54688c-2.2264,0 -4.03125,1.80485 -4.03125,4.03125c0,2.2264 1.80485,4.03125 4.03125,4.03125c2.2264,0 4.03125,-1.80485 4.03125,-4.03125c0,-2.2264 -1.80485,-4.03125 -4.03125,-4.03125zM119.59375,113.54688c-2.2264,0 -4.03125,1.80485 -4.03125,4.03125c0,2.2264 1.80485,4.03125 4.03125,4.03125c2.2264,0 4.03125,-1.80485 4.03125,-4.03125c0,-2.2264 -1.80485,-4.03125 -4.03125,-4.03125zM133.03125,113.54688c-2.2264,0 -4.03125,1.80485 -4.03125,4.03125c0,2.2264 1.80485,4.03125 4.03125,4.03125c2.2264,0 4.03125,-1.80485 4.03125,-4.03125c0,-2.2264 -1.80485,-4.03125 -4.03125,-4.03125z"></path></g><g fill="#444b54"><path d="M146.46875,153.85938h-120.9375c-2.28438,0 -4.03125,-1.74687 -4.03125,-4.03125v-16.125c0,-2.28438 1.74687,-4.03125 4.03125,-4.03125c2.28438,0 4.03125,1.74687 4.03125,4.03125v12.09375h112.875v-12.09375c0,-2.28438 1.74687,-4.03125 4.03125,-4.03125c2.28438,0 4.03125,1.74687 4.03125,4.03125v16.125c0,2.28438 -1.74687,4.03125 -4.03125,4.03125z"></path></g><g fill="#444b54"><path d="M146.46875,100.10938c-2.28438,0 -4.03125,-1.74688 -4.03125,-4.03125c0,-5.24063 -4.16563,-9.40625 -9.40625,-9.40625h-94.0625c-5.24063,0 -9.40625,4.16562 -9.40625,9.40625c0,2.28437 -1.74687,4.03125 -4.03125,4.03125c-2.28438,0 -4.03125,-1.74688 -4.03125,-4.03125c0,-9.675 7.79375,-17.46875 17.46875,-17.46875h94.0625c9.675,0 17.46875,7.79375 17.46875,17.46875c0,2.28437 -1.74687,4.03125 -4.03125,4.03125z"></path></g><g fill="#444b54"><path d="M17.46875,125.64063c-2.28437,0 -4.03125,-1.74688 -4.03125,-4.03125v-13.4375c0,-2.28437 1.74688,-4.03125 4.03125,-4.03125c2.28438,0 4.03125,1.74688 4.03125,4.03125v13.4375c0,2.28437 -1.74687,4.03125 -4.03125,4.03125z"></path></g><g fill="#444b54"><path d="M154.53125,126.98438c-2.28438,0 -4.03125,-1.74688 -4.03125,-4.03125v-13.4375c0,-2.28437 1.74687,-4.03125 4.03125,-4.03125c2.28438,0 4.03125,1.74688 4.03125,4.03125v13.4375c0,2.28437 -1.74687,4.03125 -4.03125,4.03125z"></path></g></g></g></svg>