<svg xmlns="http://www.w3.org/2000/svg" x="0px" y="0px"
height="96"
viewBox="0 0 172 172"
style=" fill:#000000;"><g fill="none" fill-rule="nonzero" stroke="none" stroke-width="1" stroke-linecap="butt" stroke-linejoin="miter" stroke-miterlimit="10" stroke-dasharray="" stroke-dashoffset="0" font-family="none" font-weight="none" font-size="none" text-anchor="none" style="mix-blend-mode: normal"><path d="M0,172v-172h172v172z" fill="none"></path><g><path d="M140.39156,38.91156c-2.9068,3.3196 -3.9904,4.08844 -6.235,4.08844c-2.26352,0 -3.26112,-0.85828 -6.21952,-4.23808c-3.3196,-3.79088 -8.33512,-9.52192 -17.8708,-9.52192c-9.53224,0 -14.54604,5.73104 -17.86392,9.52364c-2.95152,3.37636 -3.94912,4.23464 -6.20232,4.23636c-2.2532,-0.00172 -3.2508,-0.86 -6.20404,-4.23636c-3.31788,-3.7926 -8.33168,-9.52364 -17.8622,-9.52364c-9.53396,0 -14.5512,5.73104 -17.8708,9.52192c-2.9584,3.3798 -3.956,4.23808 -6.21952,4.23808c-2.24288,0 -3.3282,-0.76884 -6.235,-4.08844l-10.96844,10.96844c3.3196,3.74272 8.35404,8.6 17.20344,8.6c9.53224,0 14.54776,-5.72932 17.86736,-9.5202c2.9584,-3.38152 3.956,-4.2398 6.22296,-4.2398c2.26008,0 3.25596,0.85656 6.21264,4.23636c3.31616,3.79088 8.32824,9.5202 17.8536,9.52364c9.52536,-0.00344 14.53744,-5.73104 17.85532,-9.52364c2.95496,-3.3798 3.95256,-4.23636 6.21092,-4.23636c2.26524,0 3.26284,0.85828 6.22296,4.2398c3.3196,3.79088 8.33512,9.5202 17.86736,9.5202c8.8494,0 13.88384,-4.85728 17.20344,-8.6z" fill="#52bea0"></path><path d="M134.15656,60.2c-10.3114,0 -15.85152,-6.32788 -19.1608,-10.10672c-2.9412,-3.36088 -3.48128,-3.65328 -4.92952,-3.65328c-1.44308,0 -1.97972,0.2924 -4.91576,3.64812c-3.30928,3.78228 -8.84596,10.10844 -19.15048,10.11188c-10.30452,-0.00344 -15.8412,-6.3296 -19.14876,-10.11016c-2.93776,-3.35744 -3.4744,-3.64984 -4.91748,-3.64984c-1.44824,0 -1.98832,0.2924 -4.9278,3.65156c-3.311,3.78056 -8.85112,10.10844 -19.16252,10.10844c-10.35096,0 -16.05448,-6.43108 -18.49,-9.17964c-0.60544,-0.68112 -0.57276,-1.71312 0.07052,-2.3564l10.96844,-10.96844c0.3354,-0.3354 0.7568,-0.54352 1.2728,-0.50224c0.47472,0.01548 0.92364,0.22704 1.23668,0.5848c2.91884,3.33164 3.54836,3.50192 4.94156,3.50192c1.44652,0 1.98488,-0.2924 4.92264,-3.64984c3.31616,-3.78572 8.85628,-10.11016 19.16768,-10.11016c10.30968,0 15.84808,6.3296 19.15736,10.11016c2.93432,3.35572 3.47268,3.64812 4.9106,3.64984c1.4362,-0.00172 1.97284,-0.29412 4.90716,-3.64812c3.30928,-3.78228 8.84768,-10.11188 19.15736,-10.11188c10.3114,0 15.85152,6.32444 19.1608,10.10328c2.94464,3.36432 3.483,3.65672 4.92952,3.65672c1.3932,0 2.02272,-0.17028 4.94156,-3.50192c0.31304,-0.35776 0.76024,-0.56932 1.23668,-0.5848c0.5074,-0.04644 0.9374,0.16684 1.2728,0.50224l10.96844,10.96844c0.64328,0.64328 0.67596,1.677 0.07052,2.3564c-2.43552,2.74856 -8.13904,9.17964 -18.49,9.17964zM110.06624,43c3.15276,0 4.66464,1.56692 7.51812,4.82804c3.30068,3.76852 7.82084,8.93196 16.5722,8.93196c6.97976,0 11.43456,-3.28176 14.82124,-6.83012l-8.52088,-8.51916c-2.13624,2.2876 -3.66704,3.30928 -6.30036,3.30928c-3.14932,0 -4.6612,-1.56692 -7.51296,-4.82632c-3.30412,-3.77196 -7.826,-8.93368 -16.57736,-8.93368c-8.74792,0 -13.26808,5.16344 -16.56704,8.93368c-2.84832,3.2594 -4.35504,4.8246 -7.49748,4.82632c-3.14588,-0.00172 -4.6526,-1.56692 -7.4992,-4.8246c-3.30068,-3.77196 -7.82084,-8.9354 -16.56876,-8.9354c-8.75136,0 -13.27324,5.16172 -16.57392,8.92852c-2.8552,3.26456 -4.36708,4.83148 -7.5164,4.83148c-2.63332,0 -4.16412,-1.02168 -6.30036,-3.30928l-8.52088,8.51916c3.38668,3.54836 7.84148,6.83012 14.82124,6.83012c8.75136,0 13.27152,-5.16344 16.5722,-8.93196c2.85348,-3.26112 4.36536,-4.82804 7.51812,-4.82804c3.14588,0 4.65604,1.5652 7.50608,4.8246c3.29896,3.77024 7.8174,8.93196 16.56016,8.9354c8.74276,-0.00344 13.2612,-5.16516 16.56016,-8.93368c2.85004,-3.26112 4.3602,-4.82632 7.50608,-4.82632z" fill="#1f212b"></path><path d="M86.00688,51.6c-0.00344,0 -0.01032,0 -0.01376,0c-6.40012,-0.00516 -9.58728,-3.64984 -12.66952,-7.17412c-2.96356,-3.38668 -5.762,-6.58588 -11.38984,-6.58588c-5.633,0 -8.43316,3.1992 -11.40016,6.5876c-3.0874,3.526 -6.278,7.1724 -12.69016,7.1724c-2.38564,0 -4.4892,-0.52116 -6.43796,-1.59272c-0.41624,-0.23048 -0.5676,-0.75336 -0.33884,-1.1696c0.2322,-0.41624 0.7568,-0.56588 1.1696,-0.33884c1.6856,0.9288 3.52084,1.38116 5.60892,1.38116c5.62956,0 8.43144,-3.19748 11.39672,-6.58588c3.08568,-3.52772 6.27628,-7.17412 12.69188,-7.17412c6.40872,0 9.59932,3.6464 12.68328,7.17412c2.96184,3.38496 5.75856,6.58244 11.38296,6.58588c5.6244,-0.00344 8.42112,-3.20092 11.38296,-6.58588c3.08396,-3.52772 6.27628,-7.17412 12.68328,-7.17412c6.41904,0 9.61996,3.64468 12.71424,7.16896c1.3502,1.5394 2.62472,2.98936 4.1624,4.16412c0.3784,0.28896 0.45064,0.82732 0.16168,1.20572c-0.29068,0.3784 -0.82732,0.45064 -1.20572,0.16168c-1.67184,-1.27796 -3.06332,-2.86208 -4.40836,-4.39632c-2.9756,-3.38668 -5.78436,-6.58416 -11.42424,-6.58416c-5.62784,0 -8.42628,3.1992 -11.38984,6.58588c-3.08224,3.52428 -6.2694,7.16896 -12.66952,7.17412z" fill="#1f212b"></path><path d="M134.15656,51.6c-1.62196,0 -3.1218,-0.2494 -4.58036,-0.76024c-0.44892,-0.15652 -0.68456,-0.64844 -0.52804,-1.09564c0.15824,-0.44892 0.64844,-0.68456 1.09564,-0.52804c1.27452,0.4472 2.58688,0.66392 4.01276,0.66392c0.17544,0 0.33712,-0.01376 0.50052,-0.02752l0.31304,-0.02408c0.4816,-0.0688 0.88064,0.33196 0.90816,0.8084c0.02924,0.473 -0.33368,0.88236 -0.8084,0.90816l-0.27176,0.02064c-0.20812,0.0172 -0.41796,0.0344 -0.64156,0.0344z" fill="#1f212b"></path><path d="M138.46,50.869c-0.3526,0 -0.68284,-0.21844 -0.81012,-0.56932c-0.15996,-0.4472 0.07224,-0.94084 0.51944,-1.1008c0.62092,-0.22188 1.1438,-0.45236 1.59788,-0.70004c0.41108,-0.22704 0.93912,-0.0774 1.16788,0.34056c0.22876,0.41624 0.07568,0.93912 -0.34056,1.16788c-0.5332,0.2924 -1.1352,0.55728 -1.84212,0.81184c-0.09804,0.03268 -0.19608,0.04988 -0.2924,0.04988z" fill="#1f212b"></path><path d="M140.39156,80.19156c-2.9068,3.3196 -3.9904,4.08844 -6.235,4.08844c-2.26352,0 -3.26112,-0.85828 -6.21952,-4.23808c-3.3196,-3.79088 -8.33512,-9.52192 -17.8708,-9.52192c-9.53224,0 -14.54604,5.73104 -17.86392,9.52364c-2.95152,3.37636 -3.94912,4.23464 -6.20232,4.23636c-2.2532,-0.00172 -3.2508,-0.86 -6.20404,-4.23636c-3.31788,-3.7926 -8.33168,-9.52364 -17.8622,-9.52364c-9.53396,0 -14.5512,5.73104 -17.8708,9.52192c-2.9584,3.3798 -3.956,4.23808 -6.21952,4.23808c-2.24288,0 -3.3282,-0.76884 -6.235,-4.08844l-10.96844,10.96844c3.3196,3.74272 8.35404,8.6 17.20344,8.6c9.53224,0 14.54776,-5.72932 17.86736,-9.5202c2.9584,-3.38152 3.956,-4.2398 6.22296,-4.2398c2.26008,0 3.25596,0.85656 6.21264,4.23636c3.31616,3.79088 8.32824,9.5202 17.8536,9.52364c9.52536,-0.00344 14.53744,-5.73104 17.85532,-9.52364c2.95496,-3.3798 3.95256,-4.23636 6.21092,-4.23636c2.26524,0 3.26284,0.85828 6.22296,4.2398c3.3196,3.79088 8.33512,9.5202 17.86736,9.5202c8.8494,0 13.88384,-4.85728 17.20344,-8.6z" fill="#52bea0"></path><path d="M134.15656,101.48c-10.3114,0 -15.85152,-6.32788 -19.1608,-10.10672c-2.9412,-3.36088 -3.48128,-3.65328 -4.92952,-3.65328c-1.44308,0 -1.97972,0.2924 -4.91576,3.64812c-3.30928,3.78228 -8.84596,10.10844 -19.15048,10.11188c-10.30452,-0.00344 -15.8412,-6.3296 -19.14876,-10.11016c-2.93776,-3.35744 -3.4744,-3.64984 -4.91748,-3.64984c-1.44824,0 -1.98832,0.2924 -4.9278,3.65156c-3.311,3.78056 -8.85112,10.10844 -19.16252,10.10844c-10.35096,0 -16.05448,-6.43108 -18.49,-9.17964c-0.60544,-0.68112 -0.57276,-1.71312 0.07052,-2.3564l10.96844,-10.96844c0.3354,-0.3354 0.7568,-0.52976 1.2728,-0.50224c0.47472,0.01548 0.92364,0.22704 1.23668,0.5848c2.91884,3.33164 3.54836,3.50192 4.94156,3.50192c1.44652,0 1.98488,-0.2924 4.92264,-3.64984c3.31616,-3.78572 8.85628,-10.11016 19.16768,-10.11016c10.30968,0 15.84808,6.3296 19.15736,10.11016c2.93432,3.35572 3.47268,3.64812 4.9106,3.64984c1.4362,-0.00172 1.97284,-0.29412 4.90716,-3.64812c3.30928,-3.78228 8.84768,-10.11188 19.15736,-10.11188c10.3114,0 15.85152,6.32444 19.1608,10.10328c2.94464,3.36432 3.483,3.65672 4.92952,3.65672c1.3932,0 2.02272,-0.17028 4.94156,-3.50192c0.31304,-0.35776 0.76024,-0.56932 1.23668,-0.5848c0.5074,-0.03268 0.9374,0.16684 1.2728,0.50224l10.96844,10.96844c0.64328,0.64328 0.67596,1.677 0.07052,2.3564c-2.43552,2.74856 -8.13904,9.17964 -18.49,9.17964zM110.06624,84.28c3.15276,0 4.66464,1.56692 7.51812,4.82804c3.30068,3.76852 7.82084,8.93196 16.5722,8.93196c6.97976,0 11.43456,-3.28176 14.82124,-6.83012l-8.52088,-8.51916c-2.13624,2.2876 -3.66704,3.30928 -6.30036,3.30928c-3.14932,0 -4.6612,-1.56692 -7.51296,-4.82632c-3.30412,-3.77196 -7.826,-8.93368 -16.57736,-8.93368c-8.74792,0 -13.26808,5.16344 -16.56704,8.93368c-2.84832,3.2594 -4.35504,4.8246 -7.49748,4.82632c-3.14588,-0.00172 -4.6526,-1.56692 -7.4992,-4.8246c-3.30068,-3.77196 -7.82084,-8.9354 -16.56876,-8.9354c-8.75136,0 -13.27324,5.16172 -16.57392,8.92852c-2.8552,3.26456 -4.36708,4.83148 -7.5164,4.83148c-2.63332,0 -4.16412,-1.02168 -6.30036,-3.30928l-8.52088,8.51916c3.38668,3.54836 7.84148,6.83012 14.82124,6.83012c8.75136,0 13.27152,-5.16344 16.5722,-8.93196c2.85348,-3.26112 4.36536,-4.82804 7.51812,-4.82804c3.14588,0 4.65604,1.5652 7.50608,4.8246c3.29896,3.77024 7.8174,8.93196 16.56016,8.9354c8.74276,-0.00344 13.2612,-5.16516 16.56016,-8.93368c2.85004,-3.26112 4.3602,-4.82632 7.50608,-4.82632z" fill="#1f212b"></path><path d="M134.17032,92.88c-6.41216,0 -9.60276,-3.6464 -12.69016,-7.1724c-2.967,-3.3884 -5.76716,-6.5876 -11.40016,-6.5876c-5.6416,0 -8.44004,3.1992 -11.4036,6.58588c-3.08224,3.52428 -6.27112,7.16896 -12.66952,7.17412v0c-0.00344,0 -0.01032,0 -0.01376,0c-6.40012,-0.00516 -9.58728,-3.64984 -12.66952,-7.17412c-2.96356,-3.38668 -5.762,-6.58588 -11.38984,-6.58588c-5.633,0 -8.43316,3.1992 -11.40016,6.5876c-3.0874,3.526 -6.278,7.1724 -12.69016,7.1724c-2.38564,0 -4.4892,-0.52116 -6.43796,-1.59272c-0.41624,-0.23048 -0.5676,-0.75336 -0.33884,-1.1696c0.2322,-0.41452 0.7568,-0.56588 1.1696,-0.33884c1.6856,0.9288 3.52084,1.38116 5.60892,1.38116c5.62956,0 8.43144,-3.19748 11.39672,-6.58588c3.08568,-3.52772 6.27628,-7.17412 12.69188,-7.17412c6.40872,0 9.59932,3.6464 12.68328,7.17412c2.96184,3.38496 5.75856,6.58244 11.38296,6.58588c5.6244,-0.00344 8.42112,-3.20092 11.38296,-6.58588c3.08396,-3.52772 6.27628,-7.17412 12.68328,-7.17412c6.42764,0 9.61996,3.6464 12.70736,7.17412c2.96528,3.3884 5.76544,6.58588 11.39672,6.58588c2.08808,0 3.9216,-0.45236 5.60892,-1.38116c0.4128,-0.22704 0.9374,-0.07568 1.1696,0.33884c0.22876,0.41624 0.0774,0.93912 -0.33884,1.1696c-1.95048,1.07156 -4.05404,1.59272 -6.43968,1.59272z" fill="#1f212b"></path><path d="M31.60844,121.47156c2.9068,3.3196 3.9904,4.08844 6.235,4.08844c2.26352,0 3.26112,-0.85828 6.21952,-4.23808c3.3196,-3.79088 8.33512,-9.52192 17.8708,-9.52192c9.53224,0 14.54604,5.73104 17.86392,9.52364c2.95152,3.37636 3.94912,4.23464 6.20232,4.23636c2.2532,-0.00172 3.2508,-0.86 6.20404,-4.23636c3.31788,-3.7926 8.33168,-9.52364 17.8622,-9.52364c9.53396,0 14.5512,5.73104 17.8708,9.52192c2.9584,3.3798 3.956,4.23808 6.21952,4.23808c2.24288,0 3.3282,-0.76884 6.235,-4.08844l10.96844,10.96844c-3.3196,3.74272 -8.35404,8.6 -17.20344,8.6c-9.53224,0 -14.54776,-5.72932 -17.86736,-9.5202c-2.9584,-3.38152 -3.956,-4.2398 -6.22296,-4.2398c-2.26008,0 -3.25596,0.85656 -6.21264,4.23636c-3.31616,3.79088 -8.32824,9.5202 -17.8536,9.52364c-9.52536,-0.00344 -14.53744,-5.73104 -17.85532,-9.52364c-2.95496,-3.3798 -3.95256,-4.23636 -6.21092,-4.23636c-2.26524,0 -3.26284,0.85828 -6.22296,4.2398c-3.3196,3.79088 -8.33512,9.5202 -17.86736,9.5202c-8.8494,0 -13.88384,-4.85728 -17.20344,-8.6z" fill="#52bea0"></path><path d="M134.15656,142.76c-10.3114,0 -15.85152,-6.32788 -19.1608,-10.10672c-2.9412,-3.36088 -3.48128,-3.65328 -4.92952,-3.65328c-1.44308,0 -1.97972,0.2924 -4.91576,3.64812c-3.30928,3.78228 -8.84596,10.10844 -19.15048,10.11188c-10.30452,-0.00344 -15.8412,-6.3296 -19.14876,-10.11016c-2.93776,-3.35744 -3.4744,-3.64984 -4.91748,-3.64984c-1.44824,0 -1.98832,0.2924 -4.9278,3.65156c-3.311,3.78056 -8.85112,10.10844 -19.16252,10.10844c-10.35096,0 -16.05448,-6.43108 -18.49,-9.17964c-0.60544,-0.68112 -0.57276,-1.71312 0.07052,-2.3564l10.96844,-10.96844c0.3354,-0.3354 0.7568,-0.55556 1.2728,-0.50224c0.47472,0.01548 0.92364,0.22704 1.23668,0.5848c2.91884,3.33164 3.54836,3.50192 4.94156,3.50192c1.44652,0 1.98488,-0.2924 4.92264,-3.64984c3.31616,-3.78572 8.85628,-10.11016 19.16768,-10.11016c10.30968,0 15.84808,6.3296 19.15736,10.11016c2.93432,3.35572 3.47268,3.64812 4.9106,3.64984c1.4362,-0.00172 1.97284,-0.29412 4.90716,-3.64812c3.30928,-3.78228 8.84768,-10.11188 19.15736,-10.11188c10.3114,0 15.85152,6.32444 19.1608,10.10328c2.94464,3.36432 3.483,3.65672 4.92952,3.65672c1.3932,0 2.02272,-0.17028 4.94156,-3.50192c0.31304,-0.35776 0.76024,-0.56932 1.23668,-0.5848c0.5074,-0.05848 0.9374,0.16684 1.2728,0.50224l10.96844,10.96844c0.64328,0.64328 0.67596,1.677 0.07052,2.3564c-2.43552,2.74856 -8.13904,9.17964 -18.49,9.17964zM110.06624,125.56c3.15276,0 4.66464,1.56692 7.51812,4.82804c3.30068,3.76852 7.82084,8.93196 16.5722,8.93196c6.97976,0 11.43456,-3.28176 14.82124,-6.83012l-8.52088,-8.51916c-2.13624,2.2876 -3.66704,3.30928 -6.30036,3.30928c-3.14932,0 -4.6612,-1.56692 -7.51296,-4.82632c-3.30412,-3.77196 -7.826,-8.93368 -16.57736,-8.93368c-8.74792,0 -13.26808,5.16344 -16.56704,8.93368c-2.84832,3.2594 -4.35504,4.8246 -7.49748,4.82632c-3.14588,-0.00172 -4.6526,-1.56692 -7.4992,-4.8246c-3.30068,-3.77196 -7.82084,-8.9354 -16.56876,-8.9354c-8.75136,0 -13.27324,5.16172 -16.57392,8.92852c-2.8552,3.26456 -4.36708,4.83148 -7.5164,4.83148c-2.63332,0 -4.16412,-1.02168 -6.30036,-3.30928l-8.52088,8.51916c3.38668,3.54836 7.84148,6.83012 14.82124,6.83012c8.75136,0 13.27152,-5.16344 16.5722,-8.93196c2.85348,-3.26112 4.36536,-4.82804 7.51812,-4.82804c3.14588,0 4.65604,1.5652 7.50608,4.8246c3.29896,3.77024 7.8174,8.93196 16.56016,8.9354c8.74276,-0.00344 13.2612,-5.16516 16.56016,-8.93368c2.85004,-3.26112 4.3602,-4.82632 7.50608,-4.82632z" fill="#1f212b"></path><path d="M134.15656,134.16c-6.41216,0 -9.60276,-3.6464 -12.69016,-7.1724c-2.96528,-3.3884 -5.76544,-6.5876 -11.40016,-6.5876c-5.62784,0 -8.42628,3.1992 -11.38984,6.58588c-3.08224,3.52428 -6.27112,7.16896 -12.66952,7.17412v0v0v0c-0.00344,0 -0.01032,0 -0.01376,0c-6.40012,-0.00516 -9.58728,-3.64984 -12.66952,-7.17412c-2.96356,-3.38668 -5.762,-6.58588 -11.38984,-6.58588c-5.63988,0 -8.44864,3.19748 -11.42252,6.58416c-1.34504,1.53424 -2.73824,3.11836 -4.40836,4.39632c-0.3784,0.28896 -0.91504,0.21844 -1.20572,-0.16168c-0.28896,-0.3784 -0.21672,-0.91676 0.16168,-1.20572c1.53768,-1.17476 2.8122,-2.62472 4.1624,-4.16412c3.09256,-3.52428 6.29176,-7.16896 12.71252,-7.16896c6.40872,0 9.59932,3.6464 12.68328,7.17412c2.96184,3.38496 5.75856,6.58244 11.38296,6.58588c5.6244,-0.00344 8.42112,-3.20092 11.38296,-6.58588c3.08396,-3.52772 6.27628,-7.17412 12.68328,-7.17412c6.41388,0 9.6062,3.6464 12.6936,7.17412c2.96528,3.3884 5.76716,6.58588 11.39672,6.58588c2.08808,0 3.9216,-0.45236 5.60892,-1.38116c0.40936,-0.22876 0.9374,-0.0774 1.1696,0.33884c0.22876,0.41624 0.0774,0.93912 -0.33884,1.1696c-1.95048,1.07156 -4.05404,1.59272 -6.43968,1.59272z" fill="#1f212b"></path><path d="M37.84344,134.16c-0.22532,0 -0.43344,-0.0172 -0.64156,-0.0344l-0.27176,-0.02064c-0.473,-0.02752 -0.83592,-0.43516 -0.8084,-0.90816c0.02752,-0.473 0.42312,-0.84968 0.90816,-0.8084l0.31132,0.02408c0.1634,0.01376 0.3268,0.02752 0.50224,0.02752c1.42588,0 2.73824,-0.21672 4.01276,-0.66392c0.44892,-0.15824 0.93912,0.07912 1.09564,0.52804c0.15824,0.4472 -0.07912,0.93912 -0.52804,1.09564c-1.45856,0.51084 -2.9584,0.76024 -4.58036,0.76024z" fill="#1f212b"></path><path d="M33.54,133.429c-0.09632,0 -0.19436,-0.0172 -0.29068,-0.04988c-0.70692,-0.25284 -1.31064,-0.51944 -1.84212,-0.81184c-0.41624,-0.22876 -0.56932,-0.75164 -0.34056,-1.16788c0.22876,-0.41796 0.75508,-0.56932 1.16788,-0.34056c0.45408,0.2494 0.97524,0.47816 1.59788,0.70004c0.4472,0.15996 0.6794,0.6536 0.51944,1.1008c-0.129,0.35088 -0.45924,0.56932 -0.81184,0.56932z" fill="#1f212b"></path></g></g></svg>